<?xml version="1.0" standalone="no"?><!DOCTYPE svg PUBLIC "-//W3C//DTD SVG 1.1//EN" "http://www.w3.org/Graphics/SVG/1.1/DTD/svg11.dtd"><svg t="1575342906541" class="icon" viewBox="0 0 1024 1024" version="1.1" xmlns="http://www.w3.org/2000/svg" p-id="1025" xmlns:xlink="http://www.w3.org/1999/xlink" width="200" height="200"><defs><style type="text/css"></style></defs><path d="M669.538462 937.353846c-147.298462 0-267.815385-120.516923-267.815385-267.815384s120.516923-267.815385 267.815385-267.815385 267.815385 120.516923 267.815384 267.815385-120.516923 267.815385-267.815384 267.815384z m0-472.615384c-112.64 0-204.8 92.16-204.8 204.8s92.16 204.8 204.8 204.8 204.8-92.16 204.8-204.8-92.16-204.8-204.8-204.8z" fill="#7F7F7F" p-id="1026"></path><path d="M669.538462 551.384615l29.144615 90.584616h95.310769l-77.193846 55.138461 29.144615 90.584616-76.406153-55.926154-76.406154 55.926154L622.276923 697.107692l-77.193846-55.138461h95.310769z" fill="#BFBFBF" p-id="1027"></path><path d="M745.944615 819.2c-6.301538 0-13.390769-2.363077-18.904615-6.301538L669.538462 771.150769l-58.289231 42.535385c-11.027692 7.876923-25.993846 7.876923-37.021539 0-11.027692-7.876923-15.753846-22.055385-11.815384-35.446154l22.055384-68.529231-58.28923-42.535384c-11.027692-7.876923-15.753846-22.055385-11.815385-35.446154 3.938462-12.603077 16.541538-22.055385 29.932308-22.055385h71.68l22.055384-68.529231c3.938462-12.603077 16.541538-22.055385 29.932308-22.055384 13.390769 0 25.993846 8.664615 29.932308 22.055384l22.055384 68.529231h71.68c13.390769 0 25.993846 8.664615 29.932308 22.055385 3.938462 12.603077-0.787692 27.569231-11.815385 35.446154l-58.28923 42.535384 22.055384 68.529231c3.938462 12.603077-0.787692 27.569231-11.815384 35.446154-2.363077 3.150769-8.664615 5.513846-15.753847 5.513846zM641.969231 673.476923c9.452308 7.876923 13.390769 20.48 10.24 32.295385 10.24-6.301538 23.630769-6.301538 33.870769 0-3.150769-11.815385 0.787692-24.418462 10.24-32.295385-12.603077-0.787692-22.843077-8.664615-27.569231-19.692308-3.938462 11.027692-14.178462 18.904615-26.781538 19.692308z" fill="#BFBFBF" p-id="1028"></path><path d="M590.769231 307.2H275.692308c-17.329231 0-31.507692-14.178462-31.507693-31.507692s14.178462-31.507692 31.507693-31.507693h315.076923c17.329231 0 31.507692 14.178462 31.507692 31.507693s-14.178462 31.507692-31.507692 31.507692zM433.230769 464.738462H275.692308c-17.329231 0-31.507692-14.178462-31.507693-31.507693s14.178462-31.507692 31.507693-31.507692h157.538461c17.329231 0 31.507692 14.178462 31.507693 31.507692s-14.178462 31.507692-31.507693 31.507693zM354.461538 622.276923H275.692308c-17.329231 0-31.507692-14.178462-31.507693-31.507692s14.178462-31.507692 31.507693-31.507693h78.76923c17.329231 0 31.507692 14.178462 31.507693 31.507693s-14.178462 31.507692-31.507693 31.507692zM354.461538 779.815385H275.692308c-17.329231 0-31.507692-14.178462-31.507693-31.507693s14.178462-31.507692 31.507693-31.507692h78.76923c17.329231 0 31.507692 14.178462 31.507693 31.507692s-14.178462 31.507692-31.507693 31.507693z" fill="#7F7F7F" p-id="1029"></path><path d="M748.307692 937.353846H669.538462c-17.329231 0-31.507692-14.178462-31.507693-31.507692s14.178462-31.507692 31.507693-31.507692c23.630769 0 46.473846-3.938462 68.52923-11.815385 9.452308-3.150769 20.48-1.575385 28.356923 3.938461 8.664615 6.301538 13.390769 15.753846 13.39077 25.993847v13.390769c0 17.329231-14.178462 31.507692-31.507693 31.507692z" fill="#7F7F7F" p-id="1030"></path><path d="M669.538462 937.353846H118.153846c-17.329231 0-31.507692-14.178462-31.507692-31.507692V118.153846c0-17.329231 14.178462-31.507692 31.507692-31.507692h630.153846c17.329231 0 31.507692 14.178462 31.507693 31.507692v328.467692c0 10.24-4.726154 19.692308-13.39077 25.993847s-18.904615 7.089231-28.356923 3.938461C716.012308 468.676923 693.169231 464.738462 669.538462 464.738462c-112.64 0-204.8 92.16-204.8 204.8s92.16 204.8 204.8 204.8c17.329231 0 31.507692 14.178462 31.507692 31.507692s-14.178462 31.507692-31.507692 31.507692z m-519.876924-63.015384h347.372308C438.744615 825.501538 401.723077 751.458462 401.723077 669.538462c0-147.298462 120.516923-267.815385 267.815385-267.815385 15.753846 0 31.507692 1.575385 47.261538 3.938461V149.661538H149.661538v724.676924z" fill="#7F7F7F" p-id="1031"></path></svg>