<?xml version="1.0" standalone="no"?><!DOCTYPE svg PUBLIC "-//W3C//DTD SVG 1.1//EN" "http://www.w3.org/Graphics/SVG/1.1/DTD/svg11.dtd"><svg t="1575342910627" class="icon" viewBox="0 0 1024 1024" version="1.1" xmlns="http://www.w3.org/2000/svg" p-id="1148" xmlns:xlink="http://www.w3.org/1999/xlink" width="200" height="200"><defs><style type="text/css"></style></defs><path d="M381.184541 143.941799c-24.688261 0.133909-47.324714 5.900999-65.592328 16.781022-9.170183 5.529251-17.31566 12.425575-23.439508 21.13567-6.153228 8.635545-10.166507 19.381859-10.136527 30.73756l0 276.161962c-112.159156 0-203.093702 90.934546-203.093702 203.108293 0 100.045969 72.384723 182.954557 167.584977 199.809129L206.985648 598.197214c-0.877005-6.390667 3.566982-12.202727 9.988228-13.094122 6.331707-0.877405 12.187737 3.626541 13.050152 9.958248l40.35404 299.290281c3.87937 0.266819 7.71417 0.653557 11.638109 0.653557 41.349965 0 79.757325-12.455555 111.861758-33.651184l454.924961 33.651184 0-84.126762 92.657978-4.102219L941.460874 129.093467 381.184541 143.941799 381.184541 143.941799zM267.449853 719.319693l-16.766033-124.317313c53.79093 0.445698 106.719444 30.440162 161.654598-9.869309-13.46627 44.27778-21.760247 53.061824-37.188186 82.996528 22.800541 24.673272 33.115548 31.005978 53.983799 41.290805C374.183887 749.790034 321.225793 719.765391 267.449853 719.319693L267.449853 719.319693zM658.298458 581.65443l-193.581352-14.283316 4.414407-54.088128 193.595742 14.328285L658.298458 581.65443 658.298458 581.65443zM744.46084 452.461823 409.068635 426.896756l4.518337-54.043159 335.407794 25.535087L744.46084 452.461823 744.46084 452.461823zM890.821207 760.848537l-42.018312 1.85774L848.802896 267.561186l-466.161742-34.45364-1.055285 0c-16.186026 0.05936-30.454752-4.146589-38.986567-9.364051-4.251118-2.526687-7.045223-5.231853-8.383316-7.193523-1.382063-2.021629-1.515972-3.002364-1.545552-3.953719 0.02958-0.951355 0.163489-1.94708 1.545552-3.968309 1.992049-2.987375 7.372402-7.506311 15.785298-10.865034 8.382717-3.418682 19.456209-5.70753 31.584586-5.67815l0.223249 0 509.01209-13.51084L890.821207 760.848537 890.821207 760.848537z" p-id="1149"></path></svg>